<svg xmlns="http://www.w3.org/2000/svg" viewBox="0 0 1600 900" role="img" aria-label="Kerala landscape illustration">
  <defs>
    <linearGradient id="sky" x1="0" y1="0" x2="0" y2="1">
      <stop offset="0%" stop-color="#9ed8ff" />
      <stop offset="58%" stop-color="#ebf8ff" />
      <stop offset="100%" stop-color="#f8fcff" />
    </linearGradient>
    <linearGradient id="water" x1="0" y1="0" x2="1" y2="1">
      <stop offset="0%" stop-color="#79cbc2" />
      <stop offset="100%" stop-color="#237a71" />
    </linearGradient>
  </defs>
  <rect width="1600" height="900" fill="url(#sky)" />
  <circle cx="1248" cy="168" r="88" fill="#ffe28f" />
  <path d="M0 456 C166 332 352 348 514 444 C688 548 822 338 1020 394 C1218 452 1406 356 1600 428 L1600 900 L0 900 Z" fill="#8bb57a" />
  <path d="M0 548 C178 430 376 454 560 514 C756 580 916 430 1112 466 C1306 504 1456 450 1600 510 L1600 900 L0 900 Z" fill="#4f8559" />
  <path d="M0 636 C202 614 420 598 626 660 C852 728 1172 612 1600 664 L1600 900 L0 900 Z" fill="#264f42" />
  <rect y="640" width="1600" height="260" fill="url(#water)" />
  <path d="M0 712 C156 694 336 742 516 716 C714 688 890 744 1086 718 C1280 692 1452 742 1600 724" fill="none" opacity="0.45" stroke="#d6fffb" stroke-width="7" />
  <path d="M0 774 C164 752 338 804 534 778 C726 752 906 800 1086 776 C1276 752 1448 804 1600 786" fill="none" opacity="0.34" stroke="#d6fffb" stroke-width="6" />
  <path d="M676 696 L820 696 L792 728 L700 728 Z" fill="#5f402d" />
  <rect x="712" y="650" width="74" height="40" rx="8" fill="#f7ead5" />
  <rect x="738" y="618" width="22" height="34" fill="#5f402d" />
  <path d="M68 860 L104 860 L132 624 L100 624 Z" fill="#4a3126" />
  <path d="M46 642 C74 596 122 588 170 610 C134 614 110 634 96 660 C82 648 66 642 46 642 Z" fill="#1d4538" />
  <path d="M54 610 C96 574 154 566 214 588 C162 596 124 626 102 662 C92 634 76 618 54 610 Z" fill="#245544" />
  <path d="M72 676 C116 646 166 642 214 658 C160 668 122 694 104 732 C96 706 84 688 72 676 Z" fill="#255a48" />
  <path d="M1456 860 L1488 860 L1514 648 L1484 648 Z" fill="#482f24" />
  <path d="M1418 662 C1456 622 1514 610 1568 632 C1520 638 1484 662 1460 700 C1450 682 1438 670 1418 662 Z" fill="#1d4538" />
  <path d="M1438 628 C1480 588 1540 578 1598 600 C1542 608 1498 640 1476 676 C1468 652 1454 638 1438 628 Z" fill="#245544" />
  <path d="M1406 704 C1450 676 1504 672 1558 690 C1502 700 1460 726 1442 760 C1430 736 1420 716 1406 704 Z" fill="#255a48" />
</svg>
