<svg xmlns="http://www.w3.org/2000/svg" viewBox="0 0 800 500" role="img" aria-label="Munnar hills illustration">
  <defs>
    <linearGradient id="munnarSky" x1="0" y1="0" x2="0" y2="1">
      <stop offset="0%" stop-color="#9cd7ff" />
      <stop offset="100%" stop-color="#eef9ff" />
    </linearGradient>
  </defs>
  <rect width="800" height="500" fill="url(#munnarSky)" />
  <circle cx="604" cy="110" r="52" fill="#ffe48f" />
  <path d="M0 248 C112 178 248 186 350 244 C430 290 534 164 664 214 C726 236 772 230 800 242 L800 500 L0 500 Z" fill="#8fbe7a" />
  <path d="M0 290 C104 236 228 244 340 294 C448 342 558 232 698 272 C748 286 784 288 800 296 L800 500 L0 500 Z" fill="#5f995f" />
  <path d="M0 352 C114 312 258 324 390 366 C520 408 656 332 800 356 L800 500 L0 500 Z" fill="#2f6c49" />
  <path d="M0 334 C130 296 224 300 334 330 C468 366 582 314 742 336" fill="none" stroke="#bce5ab" stroke-width="10" stroke-linecap="round" />
  <path d="M0 386 C120 346 222 350 350 382 C466 410 612 362 800 390" fill="none" stroke="#bce5ab" stroke-width="10" stroke-linecap="round" />
  <path d="M0 430 C140 394 252 400 398 428 C520 452 630 420 800 442" fill="none" stroke="#bce5ab" stroke-width="10" stroke-linecap="round" />
  <path d="M116 500 L150 500 L174 322 L146 322 Z" fill="#53372a" />
  <path d="M90 338 C128 300 180 292 232 318 C184 324 152 352 136 388 C126 366 110 346 90 338 Z" fill="#244f3f" />
  <path d="M72 372 C118 338 180 336 238 356 C182 366 144 394 126 430 C114 404 94 386 72 372 Z" fill="#2b5f4a" />
</svg>
